# xmcd
#
# Track frame offsets: 
#        150
#        18602
#        41245
#        64984
#        83957
#        102853
#        120037
#        139268
#        152677
#        171626
#
# Disc length: 2461 seconds
#
# Revision: 1
# Processed by: cddbd v1.5.2PL0 Copyright (c) Steve Scherf et al.
# Submitted via: ExactAudioCopyFreeDBPlugin 1.0
#
DISCID=87099b0a
DTITLE=Lucero - Among the Ghosts
DYEAR=2018
DGENRE=Country
TTITLE0=Among the Ghosts
TTITLE1=Bottom of the Sea
TTITLE2=Everything Has Changed
TTITLE3=Always Been You
TTITLE4=Cover Me
TTITLE5=To My Dearest Wife
TTITLE6=Long Way Back Home
TTITLE7=Loving
TTITLE8=Back to the Night
TTITLE9=For the Lonely Ones
EXTD=
EXTT0=
EXTT1=
EXTT2=
EXTT3=
EXTT4=
EXTT5=
EXTT6=
EXTT7=
EXTT8=
EXTT9=
PLAYORDER=
